PathFileType	4	(X/Y/Z)	D:\Documents\my_script\MATLAB\opensim\convert_file_format\tsv_to_trc\CE_8km_M.tsv
DataRate	CameraRate	NumFrames	NumMarkers	Units	OrigDataRate	OrigDataStartFrame	OrigNumFrames
200	200	10	23	mm	200	6598	200
Frame#	Time	Top.Head			L.Acromium			R.Acromium			Sternum			L.ASIS			R.ASIS			V.Sacral			L.Knee.Lat			L.Knee.Med			L.Ankle.Lat			L.Ankle.Med			L.Heel			L.Toe.Lat			L.Toe.Med			L.Toe.Tip			R.Knee.Lat			R.Knee.Med			R.Ankle.Lat			R.Ankle.Med			R.Heel			R.Toe.Lat			R.Toe.Med			R.Toe.Tip		
		X1	Y1	Z1	X2	Y2	Z2	X3	Y3	Z3	X4	Y4	Z4	X5	Y5	Z5	X6	Y6	Z6	X7	Y7	Z7	X8	Y8	Z8	X9	Y9	Z9	X10	Y10	Z10	X11	Y11	Z11	X12	Y12	Z12	X13	Y13	Z13	X14	Y14	Z14	X15	Y15	Z15	X16	Y16	Z16	X17	Y17	Z17	X18	Y18	Z18	X19	Y19	Z19	X20	Y20	Z20	X21	Y21	Z21	X22	Y22	Z22	X23	Y23	Z23
6798	33.985	-50.129	1715.489	383.804	162.409	1449.022	317.046	-222.934	1418.558	419.364	0.752	1384.436	464.527	134.28	934.812	374.973	-151.908	933.24	372.553	-9.843	994.78	195.02	153.691	498.3	447.427	26.546	457.396	444.369	133.93	192.889	214.897	43.678	173.947	247.219	74.014	181.829	109.954	168.062	84.822	262.49	64.926	65.93	304.309	118.392	51.213	354.662	-158.026	475.625	235.829	-17.907	449.212	247.659	-92.561	128.854	49.543	-6.445	138.906	98.696	-22.367	104.588	-38.503	-137.427	38.64	140.783	-30.743	37.121	172.598	-86.156	45.275	212.327
6799	33.99	-48.653	1718.222	383.915	162.627	1451.585	316.034	-221.351	1422.007	421.764	2.464	1387.323	464.566	134.685	938.315	374.658	-151.014	935.1	372.777	-9.863	998.046	195.155	153.897	502.236	448.459	26.768	461.385	445.545	133.777	186.578	227.685	42.721	169.434	261.674	73.626	170.535	123.794	168.216	81.129	280.202	65.243	64.297	323.704	119.07	52.043	374.241	-157.916	479.092	228.924	-17.947	452.2	240.921	-93.028	131.962	41.431	-7.522	141.588	90.538	-22.489	110.434	-47	-137.422	38.801	130.036	-30.764	37.66	161.753	-86.127	45.243	201.291
6800	33.995	-47.12	1720.85	384.002	162.924	1454.058	315.119	-219.678	1425.342	424.108	4.241	1390.11	464.623	135.14	941.654	374.395	-150.02	936.943	373.069	-9.806	1001.232	195.337	154.161	505.866	449.051	27.075	465.099	446.441	133.142	180.289	240.567	41.949	165.235	276.396	73.199	159.308	138.199	168.536	77.867	298.063	65.602	63.118	343.227	119.85	53.33	393.794	-157.868	482.563	222.292	-17.899	455.178	234.321	-93.492	135.082	33.561	-8.614	144.258	82.545	-22.877	116.455	-55.196	-137.416	38.991	119.363	-30.781	38.177	150.944	-86.134	45.177	190.324
6801	34	-45.56	1723.375	384.071	163.259	1456.411	314.307	-218.115	1428.663	426.262	5.764	1392.775	464.758	135.678	944.831	374.16	-148.997	938.923	373.464	-9.632	1004.297	195.61	154.484	509.16	449.197	27.486	468.485	447.097	132.476	174.068	253.701	42.094	160.847	290.983	73.779	148.583	151.953	168.883	74.941	316.07	66.104	62.333	362.662	120.709	55.104	413.279	-157.864	486.039	215.928	-17.887	458.089	228.046	-93.995	138.186	25.923	-9.761	146.952	74.711	-23.291	122.596	-63.079	-137.419	39.203	108.756	-30.819	38.708	140.181	-86.156	45.089	179.413
6802	34.005	-43.982	1725.789	384.109	163.596	1458.693	313.573	-216.395	1431.799	428.457	7.54	1395.359	464.823	136.279	947.837	373.963	-147.993	940.896	373.904	-9.404	1007.21	195.942	154.854	512.12	448.885	28	471.492	447.551	131.739	168.023	267.027	42.346	156.618	305.481	72.223	137.166	168.118	168.633	72.395	334.619	66.614	62.094	382.08	121.596	57.415	432.647	-157.897	489.48	209.842	-17.901	460.952	222.105	-94.546	141.252	18.527	-10.919	149.647	67.095	-23.971	128.852	-70.673	-137.434	39.449	98.229	-30.861	39.24	129.515	-86.218	44.981	168.579
6803	34.01	-42.373	1728.048	384.119	163.942	1460.83	312.919	-214.705	1434.832	430.563	9.225	1397.793	464.922	136.94	950.649	373.807	-147.008	942.908	374.392	-9.129	1009.976	196.315	155.25	514.751	448.121	28.631	474.105	447.815	131.721	162.366	280.624	42.664	152.706	320.06	71.549	126.523	183.82	168.505	70.18	352.82	67.108	62.432	401.395	122.453	60.274	451.802	-157.923	492.892	204.035	-17.942	463.743	216.523	-95.3	144.347	11.131	-12.094	152.352	59.721	-24.704	135.216	-77.945	-137.434	39.733	87.784	-30.899	39.776	118.924	-86.284	44.838	157.829
6804	34.015	-40.733	1730.158	384.127	164.312	1462.807	312.312	-213.112	1437.817	432.581	10.683	1400.083	465.122	137.604	953.222	373.69	-146.115	944.945	374.889	-8.783	1012.578	196.725	155.642	517.035	446.877	29.353	476.296	447.894	131.731	156.973	294.347	44.024	148.845	334.358	71.019	116.229	199.843	168.352	68.381	371.009	67.554	63.352	420.513	123.227	63.683	470.676	-157.926	496.228	198.533	-17.787	466.451	210.96	-96.046	147.441	3.971	-13.266	155.106	52.714	-25.825	141.631	-85.05	-137.412	40.08	77.411	-30.914	40.285	108.778	-86.324	44.627	147.238
6805	34.02	-39.112	1732.118	384.125	164.71	1464.606	311.787	-211.549	1440.652	434.464	12.077	1402.217	465.306	138.256	955.592	373.605	-145.285	946.987	375.404	-8.408	1015.014	197.175	156.014	518.906	445.154	30.128	478.074	447.773	131.739	151.632	308.263	45.279	145.215	348.505	70.679	106.359	216.099	168.131	67.055	389.141	67.889	64.921	439.284	123.861	67.634	489.179	-157.901	499.484	193.351	-17.798	469.08	206.007	-96.772	150.57	-2.948	-14.423	157.789	45.968	-26.905	148.099	-91.813	-137.386	40.522	67.121	-30.936	40.81	98.735	-86.399	44.418	136.725
6806	34.025	-37.477	1733.906	384.104	165.12	1466.231	311.326	-209.884	1443.252	436.338	13.644	1404.175	465.419	138.889	957.707	373.564	-144.462	948.751	375.877	-8	1017.272	197.663	156.31	520.406	443.032	30.905	479.457	447.429	131.45	146.528	322.185	45.651	142.505	362.988	70.57	96.996	232.543	167.806	66.19	407.143	68.077	67.098	457.598	124.291	72.132	507.21	-157.84	502.648	188.501	-17.785	471.601	201.378	-97.508	153.795	-9.624	-15.567	160.406	39.52	-28.021	154.65	-98.261	-137.333	41.038	56.893	-30.935	41.325	88.851	-86.493	44.154	126.279
6807	34.03	-35.834	1735.48	384.076	165.432	1467.667	310.831	-208.308	1445.742	438.225	15.051	1405.937	465.567	139.484	959.563	373.547	-143.655	950.387	376.341	-7.561	1019.332	198.176	156.538	521.515	440.526	31.621	480.496	446.838	131.284	141.812	336.093	46.032	140.217	377.164	70.654	88.23	249.024	167.744	65.89	424.965	68.107	69.865	475.343	124.493	77.092	524.658	-157.747	505.689	183.994	-17.764	474.003	197.125	-98.255	157.133	-16.069	-16.67	162.974	33.332	-28.28	161.289	-104.156	-137.241	41.673	46.725	-30.928	41.852	79.109	-86.581	43.846	115.882
